<svg aria-hidden="true" style="position: absolute; width: 0; height: 0; overflow: hidden;" version="1.1" xmlns="http://www.w3.org/2000/svg" xmlns:xlink="http://www.w3.org/1999/xlink">
<defs>

<symbol id="icon-price" viewBox="0 0 32 32">
<path d="M26.681 19.402l-7.392 7.39c-0.338 0.336-0.805 0.544-1.32 0.544s-0.981-0.208-1.32-0.544l-10.577-10.577c-0.761-0.846-1.244-1.955-1.298-3.176l-0-0.011 0.072-6.2c0.019-1.035 0.854-1.869 1.888-1.886l0.002-0 6.181-0.059c1.232 0.057 2.34 0.541 3.191 1.306l-0.005-0.004 10.577 10.577c0.336 0.338 0.544 0.805 0.544 1.32s-0.208 0.981-0.544 1.32l0-0zM9.812 8.645c0-0.737-0.597-1.334-1.334-1.334s-1.334 0.597-1.334 1.334c0 0.737 0.597 1.334 1.334 1.334v0c0.737 0 1.334-0.597 1.334-1.334v0zM20.918 21.021c0.169-0.169 0.274-0.402 0.274-0.66s-0.105-0.491-0.274-0.66v0l-0.675-0.675c0.265-0.4 0.469-0.868 0.584-1.369l0.006-0.029c0.057-0.204 0.090-0.439 0.090-0.681 0-0.721-0.289-1.374-0.759-1.85l0 0c-0.443-0.442-1.041-0.729-1.705-0.774l-0.008-0c-0.069-0.005-0.15-0.007-0.232-0.007-0.368 0-0.722 0.055-1.057 0.157l0.026-0.007h-0.003c-0.379 0.121-0.708 0.279-1.009 0.476l0.016-0.010h-0.005c-0.277 0.182-0.519 0.38-0.737 0.601l-0 0c-0.132 0.132-0.274 0.254-0.426 0.364l-0.010 0.007c-0.159 0.115-0.343 0.212-0.539 0.282l-0.015 0.005h-0.003c-0.131 0.044-0.282 0.070-0.438 0.070-0.046 0-0.092-0.002-0.137-0.007l0.006 0h-0.003c-0.205-0.017-0.388-0.101-0.53-0.23l0.001 0.001c-0.142-0.159-0.229-0.371-0.229-0.602 0-0.106 0.018-0.209 0.052-0.303l-0.002 0.006c0.125-0.471 0.366-0.876 0.69-1.195l0-0c0.114-0.099 0.241-0.19 0.375-0.271l0.012-0.007 0.051-0.032c0.155-0.097 0.334-0.185 0.522-0.254l0.021-0.007c0.162-0.063 0.35-0.1 0.547-0.101h0.001c0.515 0 0.933-0.418 0.933-0.933s-0.418-0.933-0.933-0.933h-0.002c-0.434 0.002-0.849 0.083-1.231 0.23l0.024-0.008c-0.342 0.127-0.636 0.275-0.91 0.449l0.019-0.012-0.017 0.010-0.67-0.674c-0.169-0.169-0.402-0.273-0.66-0.273-0.516 0-0.934 0.418-0.934 0.934 0 0.258 0.105 0.492 0.274 0.661v0l0.653 0.652c-0.259 0.387-0.46 0.839-0.578 1.323l-0.006 0.029c-0.059 0.213-0.093 0.457-0.093 0.71 0 0.746 0.295 1.422 0.774 1.92l-0.001-0.001c0.433 0.424 1.006 0.705 1.644 0.767l0.011 0.001c0.099 0.011 0.214 0.017 0.33 0.017 0.367 0 0.72-0.061 1.048-0.174l-0.023 0.007c0.401-0.137 0.749-0.319 1.063-0.545l-0.012 0.008c0.249-0.179 0.468-0.367 0.67-0.571l0-0c0.128-0.129 0.269-0.244 0.421-0.344l0.010-0.006c0.155-0.101 0.333-0.187 0.523-0.25l0.016-0.005c0.143-0.043 0.307-0.067 0.477-0.067 0.038 0 0.076 0.001 0.114 0.004l-0.005-0c0.203 0.014 0.384 0.101 0.519 0.234l-0-0c0.084 0.083 0.278 0.278 0.163 0.822-0.123 0.484-0.366 0.899-0.695 1.228l-0 0c-0.141 0.128-0.295 0.249-0.457 0.36l-0.015 0.009c-0.148 0.097-0.317 0.186-0.496 0.257l-0.020 0.007c-0.123 0.049-0.266 0.077-0.416 0.077-0.043 0-0.086-0.002-0.128-0.007l0.005 0c-0.020-0.002-0.044-0.002-0.067-0.002-0.516 0-0.934 0.418-0.934 0.934 0 0.492 0.381 0.895 0.863 0.931l0.003 0c0.088 0.007 0.173 0.008 0.256 0.008 0.009 0 0.020 0 0.031 0 0.405 0 0.791-0.083 1.141-0.233l-0.019 0.007c0.327-0.133 0.608-0.285 0.869-0.465l-0.015 0.010 0.017-0.012 0.669 0.67c0.169 0.168 0.402 0.272 0.659 0.272s0.49-0.104 0.659-0.272l-0 0z"></path>
</symbol>

<symbol id="icon-filter" viewBox="0 0 32 32">
<path d="M27.867 5.333h-13.4c-0.601-1.552-2.070-2.639-3.797-2.667l-0.003-0c-1.716 0.017-3.172 1.112-3.725 2.639l-0.009 0.028h-2.8c-0.020-0.001-0.044-0.002-0.068-0.002-0.75 0-1.363 0.59-1.398 1.332l-0 0.003c0.036 0.745 0.648 1.335 1.398 1.335 0.024 0 0.048-0.001 0.072-0.002l-0.003 0h2.8c0.561 1.555 2.017 2.65 3.731 2.667l0.002 0c1.73-0.028 3.199-1.114 3.79-2.638l0.010-0.028h13.4c0.020 0.001 0.044 0.002 0.068 0.002 0.75 0 1.363-0.59 1.398-1.332l0-0.003c-0.036-0.745-0.648-1.335-1.398-1.335-0.024 0-0.048 0.001-0.072 0.002l0.003-0zM10.667 8c-0.736 0-1.333-0.597-1.333-1.333s0.597-1.333 1.333-1.333c0.736 0 1.333 0.597 1.333 1.333v0c0 0.736-0.597 1.333-1.333 1.333v0z"></path>
<path d="M27.867 14.667h-2.733c-0.601-1.552-2.070-2.639-3.797-2.667l-0.003-0c-1.716 0.017-3.172 1.112-3.725 2.639l-0.009 0.028h-13.467c-0.736 0-1.333 0.597-1.333 1.333s0.597 1.333 1.333 1.333v0h13.467c0.561 1.555 2.017 2.65 3.731 2.667l0.002 0c1.73-0.028 3.199-1.114 3.79-2.638l0.010-0.028h2.733c0.736 0 1.333-0.597 1.333-1.333s-0.597-1.333-1.333-1.333v0zM21.333 17.333c-0.736 0-1.333-0.597-1.333-1.333s0.597-1.333 1.333-1.333c0.736 0 1.333 0.597 1.333 1.333v0c0 0.736-0.597 1.333-1.333 1.333v0z"></path>
<path d="M27.867 24h-11.4c-0.601-1.552-2.070-2.639-3.797-2.667l-0.003-0c-1.716 0.017-3.172 1.112-3.725 2.639l-0.009 0.028h-4.8c-0.736 0-1.333 0.597-1.333 1.333s0.597 1.333 1.333 1.333v0h4.8c0.561 1.555 2.017 2.65 3.731 2.667l0.002 0c1.73-0.028 3.199-1.114 3.79-2.638l0.010-0.028h11.4c0.736 0 1.333-0.597 1.333-1.333s-0.597-1.333-1.333-1.333v0zM12.667 26.667c-0.736 0-1.333-0.597-1.333-1.333s0.597-1.333 1.333-1.333c0.736 0 1.333 0.597 1.333 1.333v0c0 0.736-0.597 1.333-1.333 1.333v0z"></path>
</symbol>

<symbol id="icon-buy" viewBox="0 0 32 32">
<path d="M26.044 9h-4.044v-1.748c0-3.285-2.532-6.15-5.815-6.249-3.398-0.102-6.185 2.622-6.185 5.997v2h-4.044c-0.535 0-0.975 0.421-0.999 0.955l-0.814 17.909c-0.078 1.708 1.286 3.136 2.996 3.136h17.721c1.71 0 3.075-1.428 2.997-3.136l-0.814-17.909c-0.024-0.534-0.464-0.955-0.999-0.955zM11 7c0-2.757 2.243-5 5-5s5 2.243 5 5v2h-1v-2c0-2.206-1.794-4-4-4s-4 1.794-4 4v2h-1v-2zM19 9h-6v-2c0-1.657 1.343-3 3-3s3 1.343 3 3v2zM5.142 27.909l0.814-17.909h20.089l0.814 17.909c0.051 1.139-0.858 2.091-1.998 2.091h-17.722c-1.14 0-2.049-0.952-1.997-2.091z"></path>
</symbol>

<symbol id="icon-profile" viewBox="0 0 32 32">
<path fill="#fff" style="fill: var(--color1, #fff)" d="M0 0h32v32h-32v-32z"></path>
<path fill="#000" style="fill: var(--color2, #000)" d="M19.115 16.462l-0.347-0.569c-0.224 0.137-0.348 0.392-0.315 0.653s0.216 0.478 0.467 0.554l0.194-0.638zM12.885 16.462l0.194 0.638c0.251-0.077 0.434-0.294 0.467-0.554s-0.090-0.516-0.315-0.653l-0.347 0.569zM5.415 25.336v0zM26.584 25.336v0zM21.333 11.333c0 1.931-1.025 3.622-2.565 4.559l0.693 1.139c1.92-1.169 3.205-3.283 3.205-5.698h-1.333zM16 6c2.945 0 5.333 2.388 5.333 5.333h1.333c0-3.682-2.985-6.667-6.667-6.667v1.333zM10.667 11.333c0-2.946 2.388-5.333 5.333-5.333v-1.333c-3.682 0-6.667 2.985-6.667 6.667h1.333zM13.231 15.893c-1.539-0.937-2.565-2.629-2.565-4.559h-1.333c0 2.415 1.285 4.529 3.205 5.698l0.693-1.139zM12.69 15.824c-4.209 1.283-7.379 4.949-7.936 9.429l1.323 0.165c0.491-3.949 3.288-7.186 7.002-8.318l-0.389-1.275zM4.754 25.254c-0.147 1.184 0.833 2.080 1.913 2.080v-1.333c-0.394 0-0.624-0.304-0.59-0.582l-1.323-0.165zM6.667 27.333h18.667v-1.333h-18.667v1.333zM25.333 27.333c1.079 0 2.060-0.896 1.913-2.080l-1.323 0.165c0.035 0.278-0.196 0.582-0.589 0.582v1.333zM27.246 25.254c-0.557-4.48-3.727-8.146-7.936-9.429l-0.389 1.275c3.714 1.132 6.51 4.369 7.002 8.318l1.323-0.165z"></path>
</symbol>

<symbol id="icon-heart" viewBox="0 0 32 32">
<path fill="#1c274c" style="fill: var(--color1, #1c274c)" d="M11.949 25.215v0zM16 7.334l-0.721 0.693c0.189 0.196 0.449 0.307 0.721 0.307s0.532-0.111 0.721-0.307l-0.721-0.693zM20.051 25.215v0zM12.568 24.429c-2.021-1.593-4.231-3.149-5.984-5.123-1.719-1.935-2.918-4.194-2.918-7.124h-2c0 3.554 1.481 6.265 3.422 8.452 1.907 2.148 4.339 3.866 6.241 5.365l1.238-1.571zM3.667 12.183c0-2.868 1.62-5.273 3.832-6.284 2.149-0.982 5.036-0.722 7.78 2.129l1.441-1.387c-3.256-3.383-7.035-3.94-10.053-2.561-2.955 1.351-5.001 4.487-5.001 8.103h2zM11.33 26c0.683 0.538 1.416 1.113 2.159 1.547s1.59 0.787 2.511 0.787v-2c-0.413 0-0.899-0.161-1.502-0.514s-1.229-0.838-1.93-1.391l-1.238 1.571zM20.67 26c1.902-1.5 4.334-3.218 6.241-5.365 1.942-2.186 3.422-4.898 3.422-8.452h-2c0 2.93-1.199 5.188-2.918 7.124-1.753 1.974-3.963 3.53-5.984 5.123l1.238 1.571zM30.333 12.183c0-3.616-2.046-6.752-5.001-8.103-3.018-1.379-6.797-0.822-10.053 2.561l1.441 1.387c2.744-2.851 5.631-3.111 7.78-2.129 2.212 1.011 3.833 3.416 3.833 6.284h2zM19.432 24.429c-0.701 0.553-1.327 1.038-1.93 1.391s-1.089 0.514-1.502 0.514v2c0.921 0 1.768-0.353 2.511-0.787s1.476-1.008 2.159-1.547l-1.238-1.571z"></path>
</symbol>

<symbol id="icon-shopping-cart" viewBox="0 0 32 32">
<path d="M27.563 26c0 0.863-0.7 1.563-1.563 1.563s-1.563-0.7-1.563-1.563 0.7-1.563 1.563-1.563 1.563 0.7 1.563 1.563z"></path>
<path d="M9.563 26c0 0.863-0.7 1.563-1.563 1.563s-1.563-0.7-1.563-1.563 0.7-1.563 1.563-1.563 1.563 0.7 1.563 1.563z"></path>
<path d="M7.994 6l-0.694-2h-3.3v1.063h2.606l3.594 13.331c-2.025 0.706-3.744 2.369-4.081 4.569-0.119 0.731-0.119 1.038-0.119 1.038h22v-1.044h-20.794c0.294-1.975 2.425-3.631 4.631-3.906s15.206-2.137 15.206-2.137l0.956-10.912h-20.006zM26 16l-14.688 2.081c-0.056 0.012-0.113 0.025-0.169 0.038l-2.794-11.081h18.606l-0.956 8.962z"></path>
</symbol>

<symbol id="icon-close" viewBox="0 0 32 32">
<path d="M25.609 8.276c0.232-0.24 0.374-0.566 0.374-0.926 0-0.736-0.597-1.333-1.333-1.333-0.36 0-0.687 0.143-0.927 0.375l-7.724 7.724-7.724-7.724c-0.24-0.232-0.566-0.374-0.926-0.374-0.736 0-1.333 0.597-1.333 1.333 0 0.36 0.143 0.687 0.375 0.927l7.724 7.724-7.724 7.724c-0.251 0.243-0.407 0.583-0.407 0.959 0 0.736 0.597 1.333 1.333 1.333 0.376 0 0.716-0.156 0.959-0.407l7.724-7.724 7.724 7.724c0.24 0.232 0.566 0.374 0.926 0.374 0.736 0 1.333-0.597 1.333-1.333 0-0.36-0.143-0.687-0.375-0.927l-7.724-7.724 7.724-7.724z"></path>
</symbol>

<symbol id="icon-search" viewBox="0 0 32 32">
<path d="M19.97 22.071c-1.694 1.253 3.572-4.131 2.074-2.084 0.038-0.003-0.032 0.11-0.265 0.395 0 0 4.002 3.975 5.966 5.998 0.682 0.738-0.549 2.209-1.384 1.441-1.779-1.726-5.989-6.015-5.995-6.023l-0.396 0.273z"></path>
<path d="M14.089 24.081c2.575-0.025 5.124-1.091 6.957-2.903 2.177-2.151 3.298-5.335 2.907-8.373-0.67-5.207-4.951-8.742-9.928-8.742-3.781 0-7.457 2.365-9.069 5.795-1.234 2.626-1.236 5.796 0 8.427 1.601 3.406 5.215 5.759 9.004 5.796 0.043 0 0.086 0 0.129 0zM13.972 22.413c-3.845-0.037-7.434-3.011-8.147-6.824-0.503-2.688 0.447-5.597 2.425-7.506 2.309-2.229 5.938-2.976 8.957-1.713 2.7 1.13 4.721 3.755 5.093 6.648 0.319 2.479-0.57 5.077-2.319 6.866-1.534 1.57-3.684 2.507-5.902 2.529-0.036 0-0.072 0-0.107 0z"></path>
</symbol>

<symbol id="icon-minus" viewBox="0 0 32 32">
<path d="M16 1.333c-8.1 0-14.667 6.566-14.667 14.667s6.566 14.667 14.667 14.667c8.1 0 14.667-6.566 14.667-14.667v0c-0.010-8.096-6.57-14.657-14.666-14.667h-0.001zM16 28c-6.627 0-12-5.373-12-12s5.373-12 12-12c6.627 0 12 5.373 12 12v0c-0.008 6.624-5.376 11.992-11.999 12h-0.001zM22.667 16c0 0.736-0.597 1.333-1.333 1.333v0h-10.667c-0.736 0-1.333-0.597-1.333-1.333s0.597-1.333 1.333-1.333v0h10.667c0.736 0 1.333 0.597 1.333 1.333v0z"></path>
</symbol>

<symbol id="icon-plus" viewBox="0 0 32 32">
<path d="M16 8c0.736 0 1.333 0.597 1.333 1.333v5.333h5.333c0.736 0 1.333 0.597 1.333 1.333s-0.597 1.333-1.333 1.333h-5.333v5.333c0 0.736-0.597 1.333-1.333 1.333s-1.333-0.597-1.333-1.333v-5.333h-5.333c-0.736 0-1.333-0.597-1.333-1.333s0.597-1.333 1.333-1.333h5.333v-5.333c0-0.736 0.597-1.333 1.333-1.333z"></path>
<path d="M1.333 16c0-8.1 6.566-14.667 14.667-14.667s14.667 6.566 14.667 14.667c0 8.1-6.567 14.667-14.667 14.667s-14.667-6.567-14.667-14.667zM16 4c-6.627 0-12 5.373-12 12s5.373 12 12 12c6.627 0 12-5.373 12-12s-5.373-12-12-12z"></path>
</symbol>

<symbol id="icon-arrow" viewBox="0 0 46 32">
<path d="M44 18c1.105 0 2-0.895 2-2s-0.895-2-2-2v4zM0.586 14.586c-0.781 0.781-0.781 2.047 0 2.828l12.728 12.728c0.781 0.781 2.047 0.781 2.828 0s0.781-2.047 0-2.828l-11.314-11.314 11.314-11.314c0.781-0.781 0.781-2.047 0-2.828s-2.047-0.781-2.828 0l-12.728 12.728zM44 14h-42v4h42v-4z"></path>
</symbol>

<symbol id="icon-nova" viewBox="0 0 90 32">
<path fill="#ed1c24" style="fill: var(--color1, #ed1c24)" d="M39.222 5.428c0 0 0 0 1.885 0 0.687 0 1.033 0.339 1.033 1.105 0 0 0 0 0 2.714 0 0 0 0 3.692 0 0 0 0 0 0-2.714 0-0.766 0.341-1.105 1.115-1.105 0 0 0 0 1.802 0 0 0 0 0 0 1.784 0 0 0 0-0.769 0 0 0-0.088 0.087-0.088 0.087s0 0 0 7.639c0 0 0 0-2.060 0 0 0 0 0 0-3.819 0 0 0 0-3.692 0 0 0 0 0 0 3.819 0 0 0 0-2.060 0 0 0 0 0 0-7.639 0 0 0-0.087-0.088-0.087 0 0 0 0-0.769 0 0 0 0 0 0-1.784z"></path>
<path fill="#ed1c24" style="fill: var(--color1, #ed1c24)" d="M54.154 5.259l0.046 0.005v1.959l-0.046-0.010c-1.544 0-2.747 1.275-2.747 2.889 0 1.696 1.203 3.053 2.747 3.053l0.046-0.010v1.959l-0.046 0.005c-2.747 0-4.977-2.205-4.977-5.007 0-2.719 2.23-4.842 4.977-4.842z"></path>
<path fill="#ed1c24" style="fill: var(--color1, #ed1c24)" d="M54.201 5.264l0.955 0.093c2.267 0.442 3.976 2.365 3.976 4.745 0 2.447-1.709 4.447-3.976 4.904l-0.955 0.098v-1.959l1.048-0.226c1.012-0.463 1.74-1.547 1.74-2.817 0-1.213-0.728-2.231-1.74-2.663l-1.048-0.216v-1.959z"></path>
<path fill="#ed1c24" style="fill: var(--color1, #ed1c24)" d="M59.56 5.428c0 0 0 0 2.876 0h1.373v1.784h-0.129c-0.17 0-0.516 0-1.203 0 0 0 0 0 0 1.953 0 0 0 0 0.583 0h0.749v1.696h-0.439c-0.217 0-0.506 0-0.893 0 0 0 0 0 0 2.123 0 0.087 0 0.087 0.088 0.087 0 0 0 0 0.614 0h0.63v1.866h-0.181c-0.31 0-0.935 0-2.179 0-0.687 0-1.027-0.339-1.027-1.105v-6.621c0 0 0 0-0.862 0 0 0 0 0 0-1.784z"></path>
<path fill="#ed1c24" style="fill: var(--color1, #ed1c24)" d="M63.81 5.428h0.041c1.89 0 3.005 1.018 3.005 2.55 0 0.93-0.429 1.527-0.857 1.953 0.774 0.339 1.286 1.187 1.286 2.118 0 1.784-1.373 2.889-3.346 2.889 0 0 0 0-0.036 0h-0.093v-1.866h0.212c0.687 0 1.12-0.427 1.12-1.105s-0.434-1.105-1.12-1.105c0 0 0 0-0.191 0h-0.021v-1.696h0.041c0.604 0 0.945-0.427 0.945-1.018 0-0.596-0.341-0.936-0.945-0.936 0 0 0 0-0.021 0h-0.021v-1.784z"></path>
<path fill="#ed1c24" style="fill: var(--color1, #ed1c24)" d="M71.234 5.428c0 0 0 0 0.867 0h0.16v2.719c-0.083 0.17-0.17 0.422-0.17 0.679 0 0 0 0-0.687 1.953 0 0 0 0 0.728 0h0.129v1.779h-0.465c-0.263 0-0.563 0-0.904 0 0 0 0 0-0.604 1.532-0.17 0.591-0.511 0.848-1.198 0.848 0 0 0 0-1.291 0 0 0 0 0 0-1.866 0 0 0 0 0.429 0 0.176 0 0.176 0 0.258-0.087 0 0 0 0 2.747-7.557z"></path>
<path fill="#ed1c24" style="fill: var(--color1, #ed1c24)" d="M72.262 5.428h1.033c0 0 0 0 2.747 7.557 0.083 0.087 0.083 0.087 0.253 0.087 0 0 0 0 0.346 0 0 0 0 0 0 1.866 0 0 0 0-1.203 0-0.687 0-1.027-0.257-1.203-0.936 0 0 0 0-0.599-1.444 0 0 0 0-1.157 0h-0.217v-1.779h0.857c0 0 0 0-0.682-1.953 0-0.257-0.088-0.509-0.176-0.679v-2.719z"></path>
<path fill="#ed1c24" style="fill: var(--color1, #ed1c24)" d="M39.222 17.653c0 0 0 0 7.466 0 0.687 0 1.115 0.339 1.115 1.105 0 0 0 0 0 6.451 0 0.082 0 0.082 0.088 0.082 0 0 0 0 0.687 0 0 0 0 0 0 1.871 0 0 0 0-1.802 0-0.774 0-1.115-0.339-1.115-1.105 0 0 0 0 0-6.534 0 0 0-0.087-0.088-0.087 0 0 0 0-3.434 0 0 0 0 0 0 7.726 0 0 0 0-2.060 0 0 0 0 0 0-7.726 0 0 0 0-0.857 0 0 0 0 0 0-1.784z"></path>
<path fill="#ed1c24" style="fill: var(--color1, #ed1c24)" d="M53.984 17.483l0.041 0.005v1.959l-0.041-0.010c-1.549 0-2.747 1.275-2.747 2.889 0 1.696 1.198 3.053 2.747 3.053l0.041-0.010v1.959l-0.041 0.005c-2.747 0-4.895-2.21-4.895-5.007 0-2.719 2.148-4.842 4.895-4.842z"></path>
<path fill="#ed1c24" style="fill: var(--color1, #ed1c24)" d="M54.025 17.488l0.986 0.093c2.308 0.442 3.95 2.365 3.95 4.745 0 2.447-1.642 4.447-3.95 4.904l-0.986 0.098v-1.959l1.089-0.226c1.027-0.463 1.704-1.547 1.704-2.817 0-1.213-0.676-2.231-1.704-2.663l-1.089-0.216v-1.959z"></path>
<path fill="#ed1c24" style="fill: var(--color1, #ed1c24)" d="M59.39 17.653c0 0 0 0 1.89 0 0.687 0 1.027 0.339 1.027 1.105 0 0 0 0 0 6.451 0 0.082 0 0.082 0.088 0.082 0 0 0 0 2.489 0 0 0 0 0 0-7.639 0 0 0 0 2.060 0 0 0 0 0 0 7.639 0 0 0 0 2.489 0 0.088 0 0.088 0 0.088-0.082 0 0 0 0 0-6.451 0-0.766 0.341-1.105 1.027-1.105 0 0 0 0 1.89 0 0 0 0 0 0 1.784 0 0 0 0-0.774 0-0.088 0-0.088 0.087-0.088 0.087s0 0 0 6.534c0 0.766-0.341 1.105-1.027 1.105 0 0 0 0-9.185 0-0.769 0-1.115-0.339-1.115-1.105 0 0 0 0 0-6.534 0 0 0-0.087-0.083-0.087 0 0 0 0-0.774 0 0 0 0 0 0-1.784z"></path>
<path fill="#ed1c24" style="fill: var(--color1, #ed1c24)" d="M74.064 17.653c0 0 0 0 6.439 0 0.774 0 1.033 0.339 1.033 1.018 0 0 0 0 0 1.614h-1.89c0 0 0 0 0-0.761 0-0.087 0-0.087-0.088-0.087 0 0 0 0-1.198 0 0 0 0 0 0 7.726 0 0 0 0-2.065 0 0 0 0 0 0-7.726 0 0 0 0-1.198 0-0.088 0-0.088 0-0.088 0.087 0 0 0 0 0 0.761 0 0 0 0-1.89 0 0 0 0 0 0-1.614 0-0.679 0.258-1.018 0.945-1.018z"></path>
<path fill="#ed1c24" style="fill: var(--color1, #ed1c24)" d="M84.194 17.653c0 0 0 0 0.867 0h0.16v2.719c-0.088 0.17-0.17 0.422-0.17 0.679 0 0 0 0-0.687 1.953 0 0 0 0 0.723 0h0.134v1.779h-0.465c-0.263 0-0.563 0-0.909 0 0 0 0 0-0.599 1.445-0.17 0.679-0.516 0.936-1.203 0.936 0 0 0 0-1.286 0 0 0 0 0 0-1.871 0 0 0 0 0.429 0 0.176 0 0.176 0 0.258-0.082 0 0 0 0 2.747-7.557z"></path>
<path fill="#ed1c24" style="fill: var(--color1, #ed1c24)" d="M85.222 17.653h1.027c0 0 0 0 2.752 7.557 0.083 0.082 0.083 0.082 0.258 0.082h0.341c0 0 0 0 0 1.871 0 0 0 0-1.203 0-0.687 0-1.027-0.257-1.203-0.936 0 0 0 0-0.599-1.445 0 0 0 0-1.157 0h-0.217v-1.779h0.857c0 0 0 0-0.687-1.953 0-0.257-0.083-0.509-0.17-0.679v-2.719z"></path>
<path fill="#ed1c24" style="fill: var(--color1, #ed1c24)" d="M25.994 9.474c0.098-0.031 0.227 0.031 0.356 0.2 0 0 0 0 5.834 5.685 0.341 0.339 0.341 0.853 0 1.105 0 0 0 0-5.834 5.773-0.129 0.17-0.258 0.211-0.356 0.159s-0.16-0.2-0.16-0.416v-12.137c0-0.211 0.062-0.339 0.16-0.37z"></path>
<path fill="#ed1c24" style="fill: var(--color1, #ed1c24)" d="M16.014 0h0.413l0.398 0.165c0 0 0 0 6.005 5.942 0.258 0.339 0.17 0.596-0.258 0.596 0 0 0 0-2.489 0-0.429 0-0.769 0.339-0.769 0.766 0 0 0 0 0 4.411 0 0.427-0.346 0.766-0.862 0.766 0 0 0 0-4.373 0-0.429 0-0.774-0.339-0.774-0.766 0 0 0 0 0-4.411 0-0.427-0.341-0.766-0.774-0.766h-2.659c-0.429 0-0.516-0.257-0.258-0.596 0 0 0 0 6.010-5.942l0.392-0.165z"></path>
<path fill="#ed1c24" style="fill: var(--color1, #ed1c24)" d="M6.606 9.346c0.108 0.051 0.176 0.2 0.176 0.416v12.389c0 0.216-0.067 0.344-0.176 0.386-0.103 0.041-0.253 0-0.429-0.128 0 0 0 0-5.922-5.942-0.341-0.252-0.341-0.766 0-1.105 0 0 0 0 5.922-5.855 0.176-0.17 0.325-0.211 0.429-0.159z"></path>
<path fill="#ed1c24" style="fill: var(--color1, #ed1c24)" d="M14.078 19.097c0 0 0 0 4.373 0 0.516 0 0.862 0.339 0.862 0.766 0 0 0 0 0 4.668 0 0.509 0.341 0.848 0.769 0.848h2.318c0.429 0 0.599 0.252 0.258 0.509 0 0 0 0-5.834 5.855-0.176 0.17-0.387 0.257-0.604 0.257-0.212 0-0.429-0.087-0.599-0.257 0 0 0 0-5.834-5.855-0.346-0.257-0.176-0.509 0.253-0.509 0 0 0 0 2.489 0 0.434 0 0.774-0.339 0.774-0.848 0 0 0 0 0-4.668 0-0.427 0.346-0.766 0.774-0.766z"></path>
</symbol>

</defs>
</svg>
